Coordinates
version=1
nRows=9
nColumns=63
inDegrees=yes

Units are S.I. units (second, meters, Newtons, ...)
If the header above contains a line with 'inDegrees', this indicates whether rotational values are in degrees (yes) or radians (no).

endheader
time	pelvis_tilt	pelvis_list	pelvis_rotation	pelvis_tx	pelvis_ty	pelvis_tz	hip_flexion_r	hip_adduction_r	hip_rotation_r	knee_angle_r	knee_angle_r_beta	ankle_angle_r	subtalar_angle_r	mtp_angle_r	hip_flexion_l	hip_adduction_l	hip_rotation_l	knee_angle_l	knee_angle_l_beta	ankle_angle_l	subtalar_angle_l	mtp_angle_l	L5_S1_Flex_Ext	L5_S1_Lat_Bending	L5_S1_axial_rotation	L4_L5_Flex_Ext	L4_L5_Lat_Bending	L4_L5_axial_rotation	L3_L4_Flex_Ext	L3_L4_Lat_Bending	L3_L4_axial_rotation	L2_L3_Flex_Ext	L2_L3_Lat_Bending	L2_L3_axial_rotation	L1_L2_Flex_Ext	L1_L2_Lat_Bending	L1_L2_axial_rotation	L1_T12_Flex_Ext	L1_T12_Lat_Bending	L1_T12_axial_rotation	Abs_r3	Abs_r2	Abs_r1	Abs_t1	Abs_t2	neck_flexion	neck_bending	neck_rotation	arm_flex_r	arm_add_r	arm_rot_r	elbow_flex_r	pro_sup_r	wrist_flex_r	wrist_dev_r	arm_flex_l	arm_add_l	arm_rot_l	elbow_flex_l	pro_sup_l	wrist_flex_l	wrist_dev_l
2.035714	5.061974	-7.125325	105.735401	0.109564	1.109150	0.013143	1.963840	2.597979	-2.998699	4.847403	0.084603	28.771859	-11.339846	0.000000	5.659573	-0.726351	18.093716	5.545755	0.096792	31.684234	-5.886983	0.000000	-0.253028	0.024688	-0.352595	-0.469898	0.032836	-0.374633	-0.415700	0.060027	-0.374633	-0.289186	0.060027	-0.308521	-0.234962	0.050345	-0.286484	-0.144580	0.038242	-0.264447	-1.807354	0.279281	-1.961030	0.000000	0.000000	6.396097	-0.192218	13.178941	41.801350	-4.568627	33.552252	134.132760	75.009585	-3.857416	-5.996812	29.950422	-5.451429	20.859328	150.207247	89.109600	-17.602428	-0.457472
2.053571	4.955944	-7.052190	105.484557	0.110185	1.109705	0.012743	1.846008	2.535421	-2.877442	4.849925	0.084647	28.701030	-11.133776	0.000000	5.572328	-0.691107	17.254188	5.720438	0.099840	31.789800	-5.308381	0.000000	-0.259395	0.010299	-0.241904	-0.481723	0.013697	-0.257023	-0.426160	0.025040	-0.257023	-0.296463	0.025040	-0.211666	-0.240874	0.021001	-0.196547	-0.148218	0.015953	-0.181428	-1.852834	0.116501	-1.345395	0.000000	0.000000	5.918192	-0.259557	12.700217	41.883060	-4.519752	32.802268	134.219506	73.282063	-4.848151	-5.415118	30.530072	-4.836536	20.446701	150.017312	88.980113	-16.717451	0.981503
2.071429	4.882368	-7.028961	105.221319	0.110831	1.110149	0.012263	1.780504	2.493717	-2.746952	4.844420	0.084551	28.603294	-10.926881	0.000000	5.517950	-0.683319	16.474272	5.845518	0.102024	31.892310	-4.804393	0.000000	-0.261253	-0.001298	-0.146746	-0.485173	-0.001726	-0.155917	-0.429213	-0.003156	-0.155917	-0.298586	-0.003156	-0.128402	-0.242600	-0.002647	-0.119231	-0.149280	-0.002011	-0.110059	-1.866105	-0.014682	-0.816156	0.000000	0.000000	5.573955	-0.361968	12.230742	41.775044	-4.541178	32.034370	134.271958	72.226510	-6.297707	-4.933769	30.779726	-4.240456	19.999272	149.768965	88.902772	-15.846462	2.293677
2.089286	4.855490	-7.052203	104.958418	0.111433	1.110460	0.011768	1.777243	2.482278	-2.627557	4.843435	0.084534	28.497659	-10.697434	0.000000	5.507023	-0.710227	15.791556	5.932071	0.103534	31.992988	-4.410288	0.000000	-0.259359	-0.007196	-0.070407	-0.481655	-0.009571	-0.074808	-0.426101	-0.017497	-0.074808	-0.296421	-0.017497	-0.061606	-0.240841	-0.014675	-0.057206	-0.148198	-0.011147	-0.052805	-1.852574	-0.081405	-0.391583	0.000000	0.000000	5.391815	-0.566920	11.717427	41.563507	-4.652733	31.341828	134.357228	71.790861	-8.121604	-4.693417	30.775145	-3.633752	19.679795	149.428221	88.857146	-15.140394	3.308293
2.107143	4.881448	-7.108360	104.675108	0.111955	1.110638	0.011300	1.826155	2.507616	-2.506050	4.844467	0.084552	28.395042	-10.427098	0.000000	5.525243	-0.778348	15.188338	5.977845	0.104333	32.096672	-4.123525	0.000000	-0.255559	-0.004795	-0.012078	-0.474598	-0.006377	-0.012833	-0.419858	-0.011659	-0.012833	-0.292078	-0.011659	-0.010568	-0.237312	-0.009778	-0.009813	-0.146026	-0.007428	-0.009058	-1.825431	-0.054243	-0.067173	0.000000	0.000000	5.403703	-0.898611	11.184564	41.304683	-4.833589	30.776798	134.565497	71.956193	-10.168220	-4.537099	30.588499	-2.983827	19.569999	148.974132	88.831215	-14.682495	3.891787
2.125000	4.960858	-7.195318	104.405552	0.112349	1.110674	0.010907	1.933254	2.568860	-2.396577	4.860803	0.084837	28.302406	-10.151969	0.000000	5.582167	-0.882634	14.713864	5.994253	0.104619	32.191337	-3.964233	0.000000	-0.248986	0.006024	0.015652	-0.462391	0.008012	0.016630	-0.409059	0.014646	0.016630	-0.284566	0.014646	0.013695	-0.231208	0.012284	0.012717	-0.142270	0.009331	0.011739	-1.778480	0.068143	0.087051	0.000000	0.000000	5.583773	-1.333835	10.660766	41.036531	-5.061044	30.396251	134.918453	72.706498	-12.389044	-4.497918	30.269314	-2.277658	19.571422	148.399135	88.820563	-14.243880	4.026961
2.142857	5.074731	-7.296926	104.153634	0.112661	1.110579	0.010613	2.079035	2.653726	-2.330277	4.891560	0.085374	28.241278	-9.836263	0.000000	5.666644	-1.008716	14.349227	5.998144	0.104687	32.291217	-3.893540	0.000000	-0.242467	0.020957	0.015905	-0.450286	0.027872	0.016899	-0.398350	0.050954	0.016899	-0.277116	0.050954	0.013917	-0.225155	0.042735	0.012923	-0.138546	0.032462	0.011929	-1.731920	0.237065	0.088458	0.000000	0.000000	5.977130	-1.846510	9.941170	40.683706	-5.288461	30.050505	135.487250	74.020024	-14.507417	-4.372383	29.962471	-1.524605	19.766904	147.708980	88.819446	-13.973914	3.807224
2.160714	5.212448	-7.411472	103.927687	0.112908	1.110368	0.010417	2.260926	2.750117	-2.373707	4.941990	0.086254	28.242882	-9.401042	0.000000	5.779823	-1.149676	14.017420	5.996569	0.104660	32.424091	-3.784016	0.000000	-0.234844	0.038253	-0.017055	-0.436129	0.050877	-0.018121	-0.385825	0.093009	-0.018121	-0.268403	0.093009	-0.014923	-0.218076	0.078006	-0.013857	-0.134190	0.059254	-0.012791	-1.677467	0.432728	-0.094854	0.000000	0.000000	6.539920	-2.378188	9.059490	40.197153	-5.480004	29.675011	136.246997	75.858658	-16.374619	-4.197473	29.691106	-0.744109	20.040441	146.914884	88.825209	-13.673385	3.320547
2.178571	5.353169	-7.534153	103.719923	0.113130	1.110069	0.010334	2.470217	2.847893	-2.431216	5.010488	0.087450	28.275850	-8.991233	0.000000	5.910286	-1.285318	13.786361	5.985766	0.104471	32.557067	-3.737008	0.000000	-0.226374	0.055255	-0.080677	-0.420399	0.073489	-0.085719	-0.371909	0.134347	-0.085719	-0.258722	0.134347	-0.070592	-0.210211	0.112676	-0.065550	-0.129350	0.085590	-0.060508	-1.616965	0.625054	-0.448700	0.000000	0.000000	7.238627	-2.915588	8.002198	39.556090	-5.641518	29.312298	137.153081	78.136612	-18.215280	-4.158400	29.486243	0.039918	20.345775	146.021488	88.835841	-13.301567	2.656829
